#!OML:ASF E:/inclinewalkrobotboard/Project1/Captureday1/Session1/subject1.ASF
:FULLY-SPECIFIED
:DEGREES
201
root 0 0 0 1.1079191109905158 -3.740226294358546 1.8028186747120887
lowerback 11.995319576633577 0.8620075036477944 -0.07690724174649757
upperback -4.1824885023372165 1.0910385130864073 -0.5396127469953813
thorax -11.297332193692469 0.5003900318902513 -0.774630203184915
lowerneck -5.921980337611475 1.4701007900561056 4.520663661598834
upperneck 18.040753446790056 2.9154382861249295 -8.266610082171091
head 6.615770569856668 1.061708173050807 -3.1944042259499126
rclavicle -1.2346636582425149E-15 3.987278418055083E-16
rhumerus 19.64142258918151 14.047457820108946 -47.80814438473125
rradius 72.0706032066189
rwrist 27.218709041884864
rhand -34.88324133280542 -57.528827977884596
rfingers 7.125020000000043
rthumb -8.024751189176579 -87.30838270752436
lclavicle 1.0722406354024766E-15 -2.7162588153723955E-15
lhumerus 20.599512568692525 -12.31367569244844 45.61687897131254
lradius 69.53492284735661
lwrist -22.20389868439625
lhand -44.75675041376549 -70.14993650573109
lfingers 7.125020000000015
lthumb -17.5645492251743 -41.04331183734345
rfemur -25.19115873699614 -2.1624449145805924 16.89648878880363
rtibia 54.19812636718344
rfoot -28.226922890682275 -16.76458056598366
rtoes -17.854862655817882
lfemur -27.44280268242137 2.4823378218551535 -18.264931152793867
ltibia 53.66164152442461
lfoot -31.886006816130692 -3.2529106666763017
ltoes -19.5638382621211
202
root 0 0 0 1.1078999622366463 -3.740378269547649 1.8027769199703987
lowerback 11.995072850159799 0.8619720574011119 -0.07692482058956962
upperback -4.18265537238616 1.0909842411068718 -0.5395993697239363
thorax -11.29737490268396 0.5003658912665173 -0.774593113176727
lowerneck -5.9220805784492665 1.4702394124611922 4.52056880020759
upperneck 18.041385511914996 2.9156529140674348 -8.266404132177287
head 6.615988099260727 1.0618031612938497 -3.1943092903531616
rclavicle -1.2504634836903627E-15 4.176685343727904E-16
rhumerus 19.64208517413779 14.047414895102294 -47.80786155916907
rradius 72.07168248071743
rwrist 27.219669500342523
rhand -34.88487769732469 -57.53248464237166
rfingers 7.125020000000043
rthumb -8.026281419586894 -87.31210018393804
lclavicle 1.037372515217287E-15 -2.692267551247264E-15
lhumerus 20.59975403055117 -12.312242985385643 45.619587770446614
lradius 69.53457222333162
lwrist -22.203120661283002
lhand -44.7589371838454 -70.16118119648661
lfingers 7.125020000000015
lthumb -17.566504846412265 -41.055108225660234
rfemur -25.190047233362584 -2.1624728410483884 16.895615857148076
rtibia 54.19657095889494
rfoot -28.22533895711103 -16.763847738752535
rtoes -17.856336316258655
lfemur -27.441174792780476 2.4817029949892584 -18.264026867309433
ltibia 53.65905516508741
lfoot -31.882806862729552 -3.252576669345514
ltoes -19.567287101290685
203
root 0 0 0 1.1080204648568819 -3.7401549440794266 1.8028395174374934
lowerback 11.995270500136792 0.8620090449462464 -0.076949257064899
upperback -4.182584756146044 1.0910306140477883 -0.5396404243983203
thorax -11.297411029476962 0.5003880409528879 -0.7746334757232406
lowerneck -5.922284351392825 1.4701714208151806 4.520568785906253
upperneck 18.0411107630227 2.9155284738724614 -8.266395988951063
head 6.6159379759095005 1.061748139879514 -3.194314489216507
rclavicle -1.2283744227342665E-15 3.966718238484794E-16
rhumerus 19.64158057440408 14.047572926180845 -47.80806318415095
rradius 72.07070477359947
rwrist 27.218725611826514
rhand -34.88329384819965 -57.5289028104967
rfingers 7.125020000000043
rthumb -8.024808576175952 -87.30842647687105
lclavicle 1.0817168488789211E-15 -2.7188884718551592E-15
lhumerus 20.59917440453968 -12.313207913821739 45.61718446725409
lradius 69.53475677131725
lwrist -22.203907421670397
lhand -44.75686409004998 -70.15142968205275
lfingers 7.125020000000015
lthumb -17.564687032845377 -41.04480877431348
rfemur -25.190918568539214 -2.162428491895911 16.896491664238344
rtibia 54.19822705225744
rfoot -28.226721227630115 -16.76442159731738
rtoes -17.855131152698128
lfemur -27.442719361294643 2.482268466265551 -18.264878713266054
ltibia 53.66144370327771
lfoot -31.885720451681017 -3.253059966418656
ltoes -19.564016177801914
204
root 0 0 0 1.1079879131963177 -3.740169664136916 1.8028353674347168
lowerback 11.9952980600207 0.8620099269462538 -0.07693621827416461
upperback -4.182546176213603 1.0910350946777911 -0.5396322263536151
thorax -11.297384234033917 0.5003895508061482 -0.7746335220691738
lowerneck -5.922183759014914 1.4701433812641054 4.520604016959577
upperneck 18.040967983761448 2.915491040388565 -8.266474208661329
head 6.615874747156483 1.0617315374692815 -3.1943475613385406
rclavicle -1.233871224567505E-15 3.9911484445825264E-16
rhumerus 19.641349254669386 14.047373531530619 -47.80816746235224
rradius 72.07055618191859
rwrist 27.218714528727816
rhand -34.88332224516935 -57.528890402673646
rfingers 7.125020000000043
rthumb -8.024825604160258 -87.30844278834223
lclavicle 1.0735709538626736E-15 -2.7157108299941186E-15
lhumerus 20.59941561093933 -12.313567812529183 45.617040282100604
lradius 69.53484429348255
lwrist -22.20384984283433
lhand -44.75679142754745 -70.15031269050554
lfingers 7.125020000000015
lthumb -17.564599192510094 -41.04370013009556
rfemur -25.19117865321131 -2.1624501126526003 16.89646785552701
rtibia 54.19814706239919
rfoot -28.22682415738555 -16.764542115119657
rtoes -17.854860647096267
lfemur -27.44275783494488 2.4823379407214645 -18.26494791885089
ltibia 53.661691624143685
lfoot -31.88587546507245 -3.2530032530192963
ltoes -19.563658661508576
